<svg xmlns="http://www.w3.org/2000/svg" viewBox="0 0 11 16"><path d="M3.5 12a1.505 1.505 0 0 1-1.383-.914A1.472 1.472 0 0 1 2 10.5v-9A1.505 1.505 0 0 1 2.914.117C3.096.04 3.292 0 3.5 0h4a1.505 1.505 0 0 1 1.383.914c.078.182.117.378.117.586v9a1.505 1.505 0 0 1-.914 1.383A1.472 1.472 0 0 1 7.5 12h-4zM3 10.5c0 .135.05.253.148.352A.48.48 0 0 0 3.5 11h4a.48.48 0 0 0 .352-.148A.48.48 0 0 0 8 10.5v-9a.48.48 0 0 0-.148-.352A.48.48 0 0 0 7.5 1h-4a.48.48 0 0 0-.352.148A.48.48 0 0 0 3 1.5v9zM11 8v2.828c0 .438-.083.85-.25 1.235a3.214 3.214 0 0 1-.68 1.007 3.214 3.214 0 0 1-1.008.68c-.385.167-.796.25-1.234.25H6v1h2v1H3v-1h2v-1H3.172a3.07 3.07 0 0 1-1.235-.25 3.214 3.214 0 0 1-1.007-.68 3.214 3.214 0 0 1-.68-1.008A3.076 3.076 0 0 1 0 10.829V8h1v2.828a2.198 2.198 0 0 0 .637 1.535A2.184 2.184 0 0 0 3.172 13h4.656a2.198 2.198 0 0 0 1.535-.637A2.184 2.184 0 0 0 10 10.828V8h1z" fill="#000"/></svg>